<svg version="1.1" id="Layer_1" xmlns="http://www.w3.org/2000/svg" xmlns:xlink="http://www.w3.org/1999/xlink" x="0px" y="0px" viewBox="0 0 510.8 210.3" style="enable-background:new 0 0 510.8 210.3;" xml:space="preserve">
 <style type="text/css">
  .st0{fill:#FF3700;}
	.st1{fill:#4C4C4C;}
 </style>
 <g>
  <path class="st0" d="M346.3,2c3.8-1.3,7.8-1.9,11.8-2c7.6-0.1,15.3,1,22.7,2.7c12.5,2.8,24.6,7.2,36.4,12.1
		c24.6,10.6,48.1,23.9,70.1,39.1c6,4.2,11.9,8.5,17.5,13.3c2.4,2.3,4.9,4.9,5.8,8.3c0.6,3.4-0.5,7.1-3.1,9.3
		c-2.5,2.5-6.4,3.1-9.7,2.4c-3.3-0.5-6.2-2.2-9.1-3.7c-12.3-6.1-25.1-11.4-38.2-15.4c-5.8-1.9-11.8-3.4-17.7-4.9
		c-14.6-3.3-29.4-5.5-44.3-5.9c-6.4-0.4-12.9-0.1-19.3,0.5c8.6,13.5,18.3,26.2,28.4,38.6c2.1,2.4,2.8,6.1,1.5,9
		c-2,4.3-7.3,6.9-11.9,5.4c-2.2-0.6-3.6-2.5-5.2-4c-4-4.8-8-9.6-11.7-14.7c-5-6.4-9.6-13.1-14.3-19.8c-2.5-3.8-5.2-7.5-7.3-11.5
		c-23.6,4.4-46,13.6-67.1,25c-7.1,4-14.1,8.1-20.7,12.6c-4.8,3.1-9.2,6.7-13.8,10c-2.1,1.7-5,2-7.6,1.6c-3.4-1-6.6-3.5-7.3-7.1
		c-0.6-1.9-0.3-4,0.5-5.8c0.9-1.7,2.3-3.1,3.8-4.4c12.4-10.3,26.1-19.1,40.4-26.7c28.6-14.8,59.8-25.2,92.1-27.2
		c7.3,0,14.7-0.3,22,0.3c14.9,1,29.7,3.5,44.1,7.3c11.9,3.2,23.5,7.5,35,12.1c-15.7-9.1-31.7-17.7-48.5-24.7
		c-11.4-4.9-23.2-9.1-35.3-12.1c-8.1-1.9-16.4-3.3-24.7-3c-1.4,0.1-2.9,0.4-4.3,0.8c-1.5,0.4-2.5,1.5-3.7,2.3
		c-1.7,2.1-1.4,5-0.7,7.5c0.7,2,1.6,3.8,2.6,5.6c0.3,0.5,0.3,1.1,0.4,1.6c-6.3,0.5-12.5,1.7-18.6,3.1c-2.2-4.5-4.3-9.1-4.7-14.2
		c-0.2-3.8-0.3-7.8,1.1-11.5C335.5,8.2,340.6,3.8,346.3,2L346.3,2z">
  </path>
  <path class="st1" d="M21.7,150.4c2.2-1.8,5.8-1.5,7.5,0.7c1.2,1.6,1.8,3.5,2.5,5.3c5.9,15.9,11.8,31.7,17.7,47.6
		c0.6,1.6,1.4,3.6,0.1,5.1c-1.4,1.4-4,1.7-5.6,0.3c-1-1-1.3-2.4-1.8-3.7c-1.4-4.1-3-8.2-4.4-12.4c-6.7-0.1-13.3,0-20,0
		c-1.9,0-3.7-0.1-5.6,0.2c-1.4,4.9-3.3,9.6-5,14.4c-0.8,2.8-5,3.3-6.7,1.1c-1.1-1.5-0.3-3.4,0.3-5c6.2-16.6,12.4-33.2,18.6-49.7
		L21.7,150.4L21.7,150.4z M25.1,157.4l-10.3,29.2c6.7,0,13.3,0,20,0c0.7,0.2,0.5-0.5,0.4-0.8C31.8,176.4,28.3,166.9,25.1,157.4
		L25.1,157.4z M165.1,149.4c1.5-0.5,3.4-0.2,4.3,1.1c0.8,0.9,0.7,2.2,0.8,3.3c0,17.4,0,34.9,0,52.3c0.1,1.5-0.6,3.2-2,3.8
		c-1.5,0.5-3.4,0.4-4.5-0.9c-0.8-0.9-0.9-2.2-0.9-3.3c0-17.4,0-34.9,0-52.3C162.7,151.8,163.4,149.9,165.1,149.4L165.1,149.4z
		 M260.5,150.6c1.5-1.5,3.9-1.7,5.8-1.1c1.9,0.7,3.2,2.5,3.8,4.4c2.7,9.5,5.4,18.9,8.1,28.4c1.6,5.2,3,10.4,4.3,15.7
		c1.8-8.1,4.4-16.1,6.6-24.1c1.8-6.5,3.7-12.9,5.6-19.4c0.4-1.4,0.9-3,2.1-3.9c2.1-2,6-1.8,7.8,0.6c1.1,1.5,1.5,3.3,1.7,5.1
		c2.6,16.1,5.4,32.1,8,48.2c0.1,1.5,0.6,3.4-0.6,4.7c-1,1.3-3,1.2-4.4,0.7c-1.5-0.6-1.8-2.4-2.1-3.7c-2.4-15.7-5.1-31.4-7.3-47.1
		c-0.8,4.4-2.2,8.6-3.4,12.9c-3.5,11.8-6.9,23.7-10.4,35.5c-0.7,3-4.8,3.7-6.8,1.8c-0.6-0.7-0.9-1.6-1.1-2.4
		c-2.3-7.9-4.6-15.7-6.9-23.6c-2.2-8.1-5-16-6.6-24.2c-2.2,15.5-4.9,30.9-7.2,46.3c-0.3,1.6-0.5,3.5-2.1,4.4
		c-1.5,0.7-3.7,0.7-4.7-0.9c-0.9-1.3-0.6-3-0.4-4.4c2.8-16.5,5.5-32.9,8.2-49.4C258.9,153.5,259.3,151.8,260.5,150.6L260.5,150.6z
		 M438.2,149.4c2.4-0.9,5.1,1.1,4.9,3.6c0,17.4,0,34.9,0,52.3c0,1.3,0.1,2.8-0.9,3.7c-1.6,1.9-5.2,1.5-6.2-0.8
		c-0.4-0.8-0.4-1.6-0.4-2.5c0-17.2,0-34.3,0-51.5C435.4,152.4,436,149.8,438.2,149.4L438.2,149.4z M326.6,151.4
		c2.8-0.8,6,1.7,5.7,4.6c0,2.9-3.3,5.1-6,4.1c-2.6-0.7-3.9-4.1-2.6-6.4C324.2,152.5,325.4,151.8,326.6,151.4z M344.5,154.2
		c0.3-2.8,3.9-3.8,6-2.2c1.2,0.8,1.4,2.3,1.4,3.7c0,3.1,0,6.2,0,9.2c1.7,0,3.5-0.1,5.1,0.5c2.3,1.1,2.1,4.9-0.3,5.8
		c-1.6,0.4-3.2,0.2-4.8,0.3c0,11.7,0.1,23.5,0,35.2c0.1,2.6-2.7,4.3-5,3.5c-1.6-0.5-2.5-2.3-2.4-3.9c0-11.6,0-23.2,0-34.8
		c-1.6-0.1-3.3,0.1-4.8-0.4c-2.1-1.1-2.2-4.7,0-5.7c1.5-0.5,3.2-0.4,4.8-0.4C344.5,161.3,344.3,157.7,344.5,154.2L344.5,154.2z
		 M368,154.3c0.2-3,4.4-4.1,6.3-2c1,1.1,1.1,2.7,1,4.1c0,2.8,0,5.6,0,8.4c1.8,0,3.7-0.2,5.4,0.5c1.9,1.2,1.8,4.5-0.2,5.5
		c-1.6,0.7-3.5,0.4-5.2,0.5c-0.1,11.6,0,23.2,0,34.9c0,1-0.3,2.1-0.9,2.9c-1.7,1.6-5,1.4-6.1-0.8c-0.6-1.4-0.4-2.9-0.4-4.4
		c0-10.9,0-21.8,0-32.6c-1.9-0.1-4.1,0.4-5.7-1c-1.2-1.3-0.9-3.2-0.1-4.5c1.7-1.1,3.8-0.9,5.7-0.9C368,161.3,367.8,157.8,368,154.3
		L368,154.3z M57.3,167.8c-0.1-3.5,5.1-4.6,6.8-1.8c1.1,1.9,0.5,4.3,0.7,6.4c1.4-2.7,3.5-5,6-6.6c1.8-1.1,4.1-1.8,6.2-1
		c2.2,0.9,2.5,4.3,0.8,5.8c-1.1,1.1-2.7,1.4-4.2,1.9c-2.7,0.9-5.3,2.3-6.9,4.7c-1.5,2.3-1.9,5.1-1.9,7.8c0,6.9,0,13.9,0,20.8
		c0,1.3-0.2,2.9-1.3,3.7c-2.2,1.9-6.3,0.3-6.1-2.8C57.2,193.7,57.2,180.7,57.3,167.8L57.3,167.8z M97.6,164.5c3.3-0.3,6.6-0.1,9.7,1
		c1.6,0.6,3.2,1.4,4.2,2.8c1.3,1.7,0.1,4.5-2.1,4.7c-1.7,0.1-3.3-0.8-4.9-1.4c-3.8-1.4-8.4-1-11.6,1.5c-3,2.3-4.6,6-5.3,9.6
		c-0.6,3.7-0.5,7.6,0.5,11.2c1,3.2,2.9,6.3,5.8,8.1c2.7,1.6,6.1,1.8,9.1,1.3c1.9-0.3,3.5-1.4,5.4-1.9c1.4-0.4,3.3,0.4,3.5,2
		c0.3,1.4-0.4,2.9-1.5,3.6c-3.3,2.3-7.5,3.2-11.4,3c-5.4-0.1-10.8-2.4-14.2-6.7c-4-4.7-5.3-11.1-5.1-17.2c0.1-6,2.1-12.1,6.3-16.4
		C89.2,166.8,93.3,165,97.6,164.5z M227.3,164.5c1.6-0.4,3.6,0.2,4.3,1.8c0.7,1.9,0.3,4,0.4,6c2.2-3.8,5.9-7.9,10.7-7.9
		c2.3-0.1,4,2.2,3.4,4.4c-0.4,2-2.6,2.8-4.3,3.4c-3,0.9-6.2,2.4-7.9,5.2c-1.5,2.4-1.8,5.3-1.9,8c0,6.8,0,13.6,0,20.3
		c-0.1,1,0,2.1-0.6,3c-1.3,1.9-4.3,2-5.9,0.4c-0.8-0.9-0.9-2.2-1-3.3c0-12.4,0-24.8,0-37.2C224.4,166.8,225.3,164.8,227.3,164.5
		L227.3,164.5z M326.7,164.5c1.3-0.2,2.9-0.1,3.8,1c0.9,0.9,1,2.3,1,3.5c0,12.4,0,24.8,0,37.2c0.1,1.5-0.6,3.1-2,3.7
		c-1.5,0.5-3.5,0.5-4.5-0.8c-0.9-0.9-0.9-2.2-1-3.3v-34.2c0-1.4-0.1-2.9,0.1-4.3C324.3,165.9,325.4,164.8,326.7,164.5z M419,165.1
		c1.4-1,3.4-0.9,4.8,0.1c0.9,0.9,1.3,2.2,1.3,3.4c0,12.5,0,25.1,0,37.6c0,1.4-0.5,3-1.9,3.6c-1.8,0.9-4.5,0.4-5.2-1.6
		c-0.6-1.6-0.3-3.4-0.4-5.1c-1.6,2.3-3.5,4.3-6,5.6c-5.2,2.6-11.6,1.9-16.4-1.1c-5.1-3.2-8.1-8.9-9.1-14.8
		c-0.9-5.4-0.5-11.1,1.5-16.3c1.8-4.7,5.4-8.8,10.1-10.7c4.3-1.8,9.5-2,13.7,0.1c2.6,1.3,4.7,3.3,6.2,5.7
		C417.8,169.4,417.1,166.7,419,165.1L419,165.1z M402.7,171.3c-2.9,0.7-5.4,2.7-6.9,5.2c-2.3,3.7-2.8,8.2-2.6,12.4
		c0.3,4.1,1.4,8.5,4.4,11.5c3.1,3.3,8.4,4.2,12.4,2.3c2.3-1,4-2.9,5.2-5c2.3-4.2,2.7-9.3,2.2-14c-0.5-3.5-1.7-7.2-4.3-9.7
		C410.5,171.4,406.3,170.3,402.7,171.3L402.7,171.3z M122.5,169.5c3.9-3.7,9.4-5.5,14.7-5c4.6,0.3,9,2.5,12,6
		c4,4.4,5.9,10.5,5.7,16.3c0,1.2-0.5,2.5-1.7,3c-1.6,0.7-3.5,0.4-5.2,0.4c-8.3,0-16.6-0.1-25,0.1c0.2,3.3,1.1,6.6,3.3,9.1
		c2.2,2.7,5.7,4.3,9.2,4.3c3.2,0.1,6.5-0.4,9.2-2.1c1.6-0.9,3.1-2.2,5-2.7c1.4-0.3,3.2,0.6,3.5,2.1c0.6,2.1-1.1,3.9-2.7,5
		c-5.2,3.7-11.9,4.8-18.1,4c-5.1-0.6-9.9-3.5-12.7-7.8c-3.6-5.3-4.7-12.1-3.9-18.5C116.4,178.4,118.6,173.2,122.5,169.5L122.5,169.5
		z M126.2,175.3c-2.1,2.6-3,6-3.2,9.3c8.1,0,16.3,0.1,24.4,0c-0.1-3.8-1.3-7.8-4-10.5C138.8,169.3,130.1,170.1,126.2,175.3z
		 M192.3,165c4.9-1.2,10.4-0.7,14.8,1.9c4.5,2.6,7.5,7.3,8.9,12.2c1.6,5.9,1.5,12.3-0.5,18.1c-1.6,4.2-4.3,8.1-8.2,10.4
		c-4.7,2.8-10.5,3.4-15.7,1.9c-5-1.4-9.3-5.2-11.4-10c-3-6.5-3.3-14.1-1.3-20.9C180.7,172.2,185.7,166.6,192.3,165L192.3,165z
		 M194.3,171.3c-2.8,0.8-5.2,2.8-6.7,5.3c-2.3,4-2.8,8.7-2.4,13.2c0.4,3.8,1.5,7.6,4.1,10.4c3.3,3.5,9,4.5,13.2,2.1
		c2.6-1.4,4.5-3.9,5.6-6.6c1.6-4.4,1.9-9.3,0.9-13.9c-0.7-3.4-2.4-6.8-5.3-9C201.1,171,197.5,170.5,194.3,171.3z">
  </path>
 </g>
</svg>