<?xml version="1.0" encoding="utf-8"?>
<svg version="1.1" xmlns="http://www.w3.org/2000/svg" viewBox="0 0 1097.88 252">
<style>
	.st0{fill:#2d2d2d}
	.st1{fill:#48b579}
	.st2{fill:#6b6b6b}
</style>
<g>
	<g>
		<g>
			<path class="st0" d="M384.79,46.42c15.81,0,32.17,4.63,43.62,14.99l-11.18,24.26c-8.18-7.91-19.63-13.08-32.17-13.08c-24.26,0-43.89,18.81-43.89,41.16c0,22.9,19.63,41.71,43.89,41.71c12.54,0,23.99-5.18,32.17-13.36l11.18,24.53c-10.36,9.81-27.81,14.99-43.62,14.99c-43.89,0-69.79-30.26-69.79-67.6C315,76.67,341.44,46.42,384.79,46.42z"/>
			<path class="st0" d="M581.05,48.6v130.85h-26.17v-19.08c-10.63,13.9-25.9,21.26-43.62,21.26c-38.16,0-65.42-30.26-65.42-67.6c0-37.35,27.26-67.6,65.42-67.6c17.72,0,32.98,7.36,43.62,21.26V48.6H581.05z M554.88,114.02c0-22.9-18.54-41.43-41.43-41.43c-22.9,0-41.43,18.54-41.43,41.43c0,22.9,18.54,41.43,41.43,41.43C536.35,155.45,554.88,136.92,554.88,114.02z"/>
			<path class="st0" d="M677,46.42c15.81,0,32.17,4.63,43.62,14.99l-11.18,24.26c-8.18-7.91-19.63-13.08-32.17-13.08c-24.26,0-43.89,18.81-43.89,41.16c0,22.9,19.63,41.71,43.89,41.71c12.54,0,23.99-5.18,32.17-13.36l11.18,24.53c-10.36,9.81-27.81,14.99-43.62,14.99c-43.89,0-69.79-30.26-69.79-67.6C607.22,76.67,633.66,46.42,677,46.42z"/>
			<path class="st0" d="M759.87,74.77h-17.45V48.6h17.45V8.78h26.17V48.6h26.17v26.17h-26.17v54.52c0,9.27,0,18.81,5.18,22.63c6.27,4.63,14.99,2.45,20.99-0.54v26.44c-5.72,2.73-11.99,3.82-19.35,3.82c-24.81,0-32.98-19.9-32.98-44.98V74.77z"/>
			<path class="st0" d="M842.73,123.83V48.6h26.17v73.06c0,20.99,7.09,33.8,29.44,33.8c15.81,0,35.98-12.54,35.98-34.89V48.6h26.17v130.85h-26.17v-15.27c-7.63,8.72-20.45,17.45-40.89,17.45C862.36,181.62,842.73,162.54,842.73,123.83z"/>
			<path class="st0" d="M1097.88,138.55c0,25.9-18.26,43.07-52.34,43.07c-28.9,0-50.7-12.81-56.7-18.54l10.36-25.62c10.36,10.36,30.8,17.72,45.52,17.99c16.9,0.27,26.99-6,26.99-13.9c0-9.81-9.54-13.63-25.62-16.63c-42.8-7.63-52.88-20.17-52.88-41.16c0-21.81,20.99-37.35,53.16-37.35c11.72,0,29.71,3,47.43,12.54l-9,24.53c-6-4.36-22.35-10.63-38.44-10.9c-12.81-0.27-26.99,2.45-26.99,11.45c0,9.81,15.54,11.72,30.8,14.72C1088.61,106.11,1097.88,122.47,1097.88,138.55z"/>
		</g>
		<g>
			<path class="st2" d="M837.68,233.57c0,4.95-4.85,9.26-11.66,9.26c-7.45,0-11.27-4.51-11.86-5.34l1.57-2.79c2.01,2.65,5.54,5,10.39,5c4.61,0,8.43-2.79,8.43-6.32c0-3.04-1.91-5.24-8.28-6.42c-8.87-1.62-10.93-4.66-10.93-9.06c0-4.85,4.26-8.77,10.98-8.77c1.32,0,6.08,0.15,9.8,3.92l-1.47,2.69c-1.62-1.76-4.56-3.48-8.38-3.48c-4.26,0-7.79,1.91-7.79,5.44c0,3.43,2.5,5,8.13,6.12C834.69,225.43,837.68,228.03,837.68,233.57z"/>
			<path class="st2" d="M887.61,209.51l-11.76,18.03v14.89h-3.14v-14.89l-11.76-18.03h3.53l9.8,15.09l9.8-15.09H887.61z"/>
			<path class="st2" d="M934.41,233.57c0,4.95-4.85,9.26-11.66,9.26c-7.45,0-11.27-4.51-11.86-5.34l1.57-2.79c2.01,2.65,5.54,5,10.39,5c4.61,0,8.43-2.79,8.43-6.32c0-3.04-1.91-5.24-8.28-6.42c-8.87-1.62-10.93-4.66-10.93-9.06c0-4.85,4.26-8.77,10.97-8.77c1.32,0,6.08,0.15,9.8,3.92l-1.47,2.69c-1.62-1.76-4.56-3.48-8.38-3.48c-4.26,0-7.79,1.91-7.79,5.44c0,3.43,2.5,5,8.13,6.12C931.42,225.43,934.41,228.03,934.41,233.57z"/>
			<path class="st2" d="M980.42,209.51v3.13h-8.62v29.79h-3.14v-29.79h-8.62v-3.13H980.42z"/>
			<path class="st2" d="M1011.54,212.65v11.76h12.54v3.14h-12.54v11.76h14.9v3.14h-18.03v-32.92h18.03v3.13H1011.54z"/>
			<path class="st2" d="M1060.58,219.02l-3.72,23.42h-3.23l5.58-33.71l12.84,27.63l12.84-27.63l5.58,33.71h-3.23l-3.72-23.42l-11.47,24.2L1060.58,219.02z"/>
		</g>
	</g>
	<path class="st1" d="M171,30.74v82.52c0,7.04-5.7,12.74-12.74,12.74H153V0h-41.26C104.7,0,99,5.7,99,12.74V162h-5.26C86.7,162,81,156.3,81,149.26V54H57.74C50.7,54,45,59.7,45,66.74v118.52C45,192.3,50.7,198,57.74,198H99v54h41.26c7.04,0,12.74-5.7,12.74-12.74V162h41.26c7.04,0,12.74-5.7,12.74-12.74V18h-23.26C176.7,18,171,23.7,171,30.74z"/>
	<g>
		<path class="st0" d="M27,252H12.79C5.74,252,0,246.26,0,239.21V12.79C0,5.74,5.74,0,12.79,0H27v18h-9v216h9V252z"/>
	</g>
	<g>
		<path class="st0" d="M239.21,252H225v-18h9V18h-9V0h14.21C246.26,0,252,5.74,252,12.79v226.42C252,246.26,246.26,252,239.21,252z"/>
	</g>
</g>
</svg>
